v 0.00000 0.02600 0.00000
v 0.10500 0.05200 0.00000
v 0.00000 0.02511 0.00673
v 0.10500 0.05023 0.01346
v 0.00000 0.02252 0.01300
v 0.10500 0.04503 0.02600
v 0.00000 0.01838 0.01838
v 0.10500 0.03677 0.03677
v 0.00000 0.01300 0.02252
v 0.10500 0.02600 0.04503
v 0.00000 0.00673 0.02511
v 0.10500 0.01346 0.05023
v 0.00000 0.00000 0.02600
v 0.10500 0.00000 0.05200
v 0.00000 -0.00673 0.02511
v 0.10500 -0.01346 0.05023
v 0.00000 -0.01300 0.02252
v 0.10500 -0.02600 0.04503
v 0.00000 -0.01838 0.01838
v 0.10500 -0.03677 0.03677
v 0.00000 -0.02252 0.01300
v 0.10500 -0.04503 0.02600
v 0.00000 -0.02511 0.00673
v 0.10500 -0.05023 0.01346
v 0.00000 -0.02600 0.00000
v 0.10500 -0.05200 0.00000
v 0.00000 -0.02511 -0.00673
v 0.10500 -0.05023 -0.01346
v 0.00000 -0.02252 -0.01300
v 0.10500 -0.04503 -0.02600
v 0.00000 -0.01838 -0.01838
v 0.10500 -0.03677 -0.03677
v 0.00000 -0.01300 -0.02252
v 0.10500 -0.02600 -0.04503
v 0.00000 -0.00673 -0.02511
v 0.10500 -0.01346 -0.05023
v 0.00000 -0.00000 -0.02600
v 0.10500 -0.00000 -0.05200
v 0.00000 0.00673 -0.02511
v 0.10500 0.01346 -0.05023
v 0.00000 0.01300 -0.02252
v 0.10500 0.02600 -0.04503
v 0.00000 0.01838 -0.01838
v 0.10500 0.03677 -0.03677
v 0.00000 0.02252 -0.01300
v 0.10500 0.04503 -0.02600
v 0.00000 0.02511 -0.00673
v 0.10500 0.05023 -0.01346
v 0.00000 0.00000 0.00000
v 0.10500 0.00000 0.00000
f 1 3 4 2
f 3 5 6 4
f 5 7 8 6
f 7 9 10 8
f 9 11 12 10
f 11 13 14 12
f 13 15 16 14
f 15 17 18 16
f 17 19 20 18
f 19 21 22 20
f 21 23 24 22
f 23 25 26 24
f 25 27 28 26
f 27 29 30 28
f 29 31 32 30
f 31 33 34 32
f 33 35 36 34
f 35 37 38 36
f 37 39 40 38
f 39 41 42 40
f 41 43 44 42
f 43 45 46 44
f 45 47 48 46
f 47 1 2 48
f 49 1 3
f 50 4 2
f 49 3 5
f 50 6 4
f 49 5 7
f 50 8 6
f 49 7 9
f 50 10 8
f 49 9 11
f 50 12 10
f 49 11 13
f 50 14 12
f 49 13 15
f 50 16 14
f 49 15 17
f 50 18 16
f 49 17 19
f 50 20 18
f 49 19 21
f 50 22 20
f 49 21 23
f 50 24 22
f 49 23 25
f 50 26 24
f 49 25 27
f 50 28 26
f 49 27 29
f 50 30 28
f 49 29 31
f 50 32 30
f 49 31 33
f 50 34 32
f 49 33 35
f 50 36 34
f 49 35 37
f 50 38 36
f 49 37 39
f 50 40 38
f 49 39 41
f 50 42 40
f 49 41 43
f 50 44 42
f 49 43 45
f 50 46 44
f 49 45 47
f 50 48 46
f 49 47 1
f 50 2 48
