v 0.080000 0.000000 0.000000
v 0.078463 0.015607 0.000000
v 0.073910 0.030615 0.000000
v 0.066518 0.044446 0.000000
v 0.056569 0.056569 0.000000
v 0.044446 0.066518 0.000000
v 0.030615 0.073910 0.000000
v 0.015607 0.078463 0.000000
v 0.000000 0.080000 0.000000
v -0.015607 0.078463 0.000000
v -0.030615 0.073910 0.000000
v -0.044446 0.066518 0.000000
v -0.056569 0.056569 0.000000
v -0.066518 0.044446 0.000000
v -0.073910 0.030615 0.000000
v -0.078463 0.015607 0.000000
v -0.080000 0.000000 0.000000
v -0.078463 -0.015607 0.000000
v -0.073910 -0.030615 0.000000
v -0.066518 -0.044446 0.000000
v -0.056569 -0.056569 0.000000
v -0.044446 -0.066518 0.000000
v -0.030615 -0.073910 0.000000
v -0.015607 -0.078463 0.000000
v -0.000000 -0.080000 0.000000
v 0.015607 -0.078463 0.000000
v 0.030615 -0.073910 0.000000
v 0.044446 -0.066518 0.000000
v 0.056569 -0.056569 0.000000
v 0.066518 -0.044446 0.000000
v 0.073910 -0.030615 0.000000
v 0.078463 -0.015607 0.000000
v 0.040000 0.000000 0.120000
v 0.039231 0.007804 0.120000
v 0.036955 0.015307 0.120000
v 0.033259 0.022223 0.120000
v 0.028284 0.028284 0.120000
v 0.022223 0.033259 0.120000
v 0.015307 0.036955 0.120000
v 0.007804 0.039231 0.120000
v 0.000000 0.040000 0.120000
v -0.007804 0.039231 0.120000
v -0.015307 0.036955 0.120000
v -0.022223 0.033259 0.120000
v -0.028284 0.028284 0.120000
v -0.033259 0.022223 0.120000
v -0.036955 0.015307 0.120000
v -0.039231 0.007804 0.120000
v -0.040000 0.000000 0.120000
v -0.039231 -0.007804 0.120000
v -0.036955 -0.015307 0.120000
v -0.033259 -0.022223 0.120000
v -0.028284 -0.028284 0.120000
v -0.022223 -0.033259 0.120000
v -0.015307 -0.036955 0.120000
v -0.007804 -0.039231 0.120000
v -0.000000 -0.040000 0.120000
v 0.007804 -0.039231 0.120000
v 0.015307 -0.036955 0.120000
v 0.022223 -0.033259 0.120000
v 0.028284 -0.028284 0.120000
v 0.033259 -0.022223 0.120000
v 0.036955 -0.015307 0.120000
v 0.039231 -0.007804 0.120000
v 0.000000 0.000000 0.000000
v 0.000000 0.000000 0.120000
f 1 33 2
f 2 33 34
f 2 34 3
f 3 34 35
f 3 35 4
f 4 35 36
f 4 36 5
f 5 36 37
f 5 37 6
f 6 37 38
f 6 38 7
f 7 38 39
f 7 39 8
f 8 39 40
f 8 40 9
f 9 40 41
f 9 41 10
f 10 41 42
f 10 42 11
f 11 42 43
f 11 43 12
f 12 43 44
f 12 44 13
f 13 44 45
f 13 45 14
f 14 45 46
f 14 46 15
f 15 46 47
f 15 47 16
f 16 47 48
f 16 48 17
f 17 48 49
f 17 49 18
f 18 49 50
f 18 50 19
f 19 50 51
f 19 51 20
f 20 51 52
f 20 52 21
f 21 52 53
f 21 53 22
f 22 53 54
f 22 54 23
f 23 54 55
f 23 55 24
f 24 55 56
f 24 56 25
f 25 56 57
f 25 57 26
f 26 57 58
f 26 58 27
f 27 58 59
f 27 59 28
f 28 59 60
f 28 60 29
f 29 60 61
f 29 61 30
f 30 61 62
f 30 62 31
f 31 62 63
f 31 63 32
f 32 63 64
f 32 64 1
f 1 64 33
f 65 2 1
f 65 3 2
f 65 4 3
f 65 5 4
f 65 6 5
f 65 7 6
f 65 8 7
f 65 9 8
f 65 10 9
f 65 11 10
f 65 12 11
f 65 13 12
f 65 14 13
f 65 15 14
f 65 16 15
f 65 17 16
f 65 18 17
f 65 19 18
f 65 20 19
f 65 21 20
f 65 22 21
f 65 23 22
f 65 24 23
f 65 25 24
f 65 26 25
f 65 27 26
f 65 28 27
f 65 29 28
f 65 30 29
f 65 31 30
f 65 32 31
f 65 1 32
f 66 33 34
f 66 34 35
f 66 35 36
f 66 36 37
f 66 37 38
f 66 38 39
f 66 39 40
f 66 40 41
f 66 41 42
f 66 42 43
f 66 43 44
f 66 44 45
f 66 45 46
f 66 46 47
f 66 47 48
f 66 48 49
f 66 49 50
f 66 50 51
f 66 51 52
f 66 52 53
f 66 53 54
f 66 54 55
f 66 55 56
f 66 56 57
f 66 57 58
f 66 58 59
f 66 59 60
f 66 60 61
f 66 61 62
f 66 62 63
f 66 63 64
f 66 64 33
